<svg width="338" height="77" viewBox="0 0 338 77" fill="none" xmlns="http://www.w3.org/2000/svg">
<g clip-path="url(#clip0_3301_38890)">
<rect width="338" height="77" rx="10" fill="#D66F00"/>
<path opacity="0.3" d="M26.7658 4.83689C27.9002 2.67075 31.0008 2.67075 32.1352 4.83688L34.5969 9.53752C35.0467 10.3963 35.8801 10.9881 36.8391 11.1296L42.0494 11.8987C44.5472 12.2675 45.5252 15.3499 43.6969 17.0913L40.1034 20.514C39.3734 21.2092 39.037 22.2219 39.2057 23.2158L40.0402 28.1309C40.4547 30.5722 37.9251 32.4533 35.7064 31.3535L30.7965 28.9196C29.9484 28.4993 28.9526 28.4993 28.1046 28.9196L23.1946 31.3535C20.9759 32.4533 18.4463 30.5722 18.8608 28.1309L19.6953 23.2158C19.8641 22.2219 19.5276 21.2092 18.7976 20.514L15.2041 17.0913C13.3758 15.3499 14.3538 12.2675 16.8517 11.8987L22.0619 11.1296C23.0209 10.9881 23.8544 10.3963 24.3041 9.53752L26.7658 4.83689Z" fill="#FFF0EC"/>
<path opacity="0.5" d="M298.706 55.2971C299.311 53.4357 301.944 53.4357 302.549 55.2971L303.009 56.7126C303.279 57.545 304.055 58.1086 304.93 58.1086H306.419C308.376 58.1086 309.19 60.6131 307.606 61.7636L306.402 62.6384C305.694 63.1529 305.398 64.0648 305.668 64.8972L306.128 66.3127C306.733 68.1742 304.602 69.722 303.019 68.5716L301.815 67.6968C301.107 67.1823 300.148 67.1823 299.44 67.6968L298.236 68.5716C296.652 69.722 294.522 68.1742 295.127 66.3127L295.587 64.8972C295.857 64.0648 295.561 63.1529 294.853 62.6384L293.649 61.7636C292.065 60.6131 292.879 58.1086 294.836 58.1086H296.324C297.2 58.1086 297.976 57.545 298.246 56.7126L298.706 55.2971Z" fill="#FFF0EC"/>
<path opacity="0.4" d="M327.705 22.3543C328.008 21.4236 329.324 21.4236 329.627 22.3544L330.48 24.9817C330.616 25.3979 331.003 25.6797 331.441 25.6797H334.204C335.182 25.6797 335.589 26.932 334.797 27.5072L332.563 29.1309C332.208 29.3882 332.06 29.8441 332.196 30.2604L333.049 32.8877C333.352 33.8184 332.286 34.5923 331.495 34.0171L329.26 32.3934C328.906 32.1361 328.426 32.1361 328.072 32.3934L325.837 34.0171C325.046 34.5923 323.98 33.8184 324.283 32.8877L325.136 30.2604C325.272 29.8441 325.123 29.3882 324.769 29.1309L322.534 27.5072C321.743 26.932 322.15 25.6797 323.128 25.6797H325.891C326.328 25.6797 326.716 25.3979 326.852 24.9817L327.705 22.3543Z" fill="#FFF0EC"/>
<path opacity="0.2" d="M14.131 44.5711C14.4334 43.6404 15.7501 43.6404 16.0525 44.5711L16.9062 47.1985C17.0414 47.6147 17.4293 47.8965 17.8669 47.8965H20.6295C21.6081 47.8965 22.0149 49.1488 21.2232 49.724L18.9883 51.3477C18.6342 51.605 18.4861 52.0609 18.6213 52.4772L19.475 55.1045C19.7774 56.0352 18.7122 56.8091 17.9205 56.2339L15.6855 54.6101C15.3315 54.3529 14.852 54.3529 14.498 54.6101L12.263 56.2339C11.4713 56.8091 10.4061 56.0352 10.7085 55.1045L11.5622 52.4772C11.6974 52.0609 11.5493 51.605 11.1952 51.3477L8.96026 49.724C8.16856 49.1488 8.57544 47.8965 9.55404 47.8965H12.3166C12.7542 47.8965 13.1421 47.6147 13.2773 47.1985L14.131 44.5711Z" fill="#FFF0EC"/>
<rect opacity="0.7" x="295.535" y="2" width="4.92757" height="5.47508" rx="2.46378" fill="#FFF0EC"/>
<rect opacity="0.4" x="39.0078" y="67.4985" width="4.92757" height="5.47508" rx="2.46378" fill="#FFF0EC"/>
<g opacity="0.7">
<path d="M92.0234 -122.995C13.4911 -83.2263 58.8787 -2.7457 91.389 32.5235C189.205 114.728 219.303 14.3699 177.123 -51.4773C134.944 -117.325 281.133 -87.5738 273.941 -184.698C265.602 -297.317 190.189 -172.706 92.0234 -122.995Z" stroke="#FAFAFA" stroke-opacity="0.3" stroke-width="1.99111"/>
<path opacity="0.95875" d="M94.9865 -120.048C15.1142 -83.0443 57.6654 -1.02868 88.925 35.3536C183.813 120.922 217.395 21.6753 177.539 -45.604C137.683 -112.883 282.745 -78.0486 278.947 -175.364C274.543 -288.206 194.827 -166.303 94.9865 -120.048Z" stroke="#FAFAFA" stroke-opacity="0.3" stroke-width="1.99111"/>
<path opacity="0.9175" d="M97.845 -116.999C16.7299 -82.8057 56.3929 0.644957 86.3637 38.0961C178.207 126.923 215.232 28.9095 177.749 -39.7196C140.265 -108.349 284.023 -68.4729 283.624 -165.862C283.161 -278.789 199.239 -159.742 97.845 -116.999Z" stroke="#FAFAFA" stroke-opacity="0.3" stroke-width="1.99111"/>
<path opacity="0.87625" d="M100.595 -113.853C18.3363 -82.5109 55.0628 2.27316 83.7083 40.7474C172.396 132.726 212.819 36.0639 177.753 -33.8316C142.688 -103.727 284.967 -58.8584 287.966 -156.202C291.445 -269.076 203.419 -153.03 100.595 -113.853Z" stroke="#FAFAFA" stroke-opacity="0.3" stroke-width="1.99111"/>
<path opacity="0.835" d="M103.234 -110.612C19.9315 -82.1602 53.6766 3.85396 80.962 43.3045C166.385 138.322 210.158 43.1298 177.553 -27.947C144.948 -99.0237 285.574 -49.2168 291.969 -146.397C299.384 -259.08 207.363 -146.177 103.234 -110.612Z" stroke="#FAFAFA" stroke-opacity="0.3" stroke-width="1.99111"/>
<path opacity="0.79375" d="M105.758 -107.282C21.5135 -81.754 52.2362 5.38541 78.1281 45.7642C160.183 143.705 207.251 50.0984 177.147 -22.0729C147.042 -94.2442 285.844 -39.5599 295.627 -136.457C306.97 -248.814 211.065 -139.191 105.758 -107.282Z" stroke="#FAFAFA" stroke-opacity="0.3" stroke-width="1.99111"/>
<path opacity="0.7525" d="M108.165 -103.865C23.0803 -81.2929 50.7431 6.86566 75.2102 48.1234C153.797 148.868 204.103 56.9614 176.536 -16.2166C148.968 -89.3946 285.778 -29.8995 298.936 -126.396C314.194 -238.288 214.521 -132.08 108.165 -103.865Z" stroke="#FAFAFA" stroke-opacity="0.3" stroke-width="1.99111"/>
<path opacity="0.71125" d="M110.451 -100.366C24.63 -80.7773 49.1994 8.29291 72.2116 50.3794C147.235 153.806 200.718 63.7103 175.721 -10.3852C150.724 -84.4807 285.374 -20.2472 301.892 -116.226C321.045 -227.518 217.726 -124.852 110.451 -100.366Z" stroke="#FAFAFA" stroke-opacity="0.3" stroke-width="1.99111"/>
<path opacity="0.67" d="M112.613 -96.7898C26.1609 -80.208 47.6067 9.66541 69.1361 52.5294C140.504 158.511 197.099 70.3369 174.703 -4.58581C152.307 -79.5085 284.633 -10.615 304.491 -105.959C327.517 -216.514 220.678 -117.517 112.613 -96.7898Z" stroke="#FAFAFA" stroke-opacity="0.3" stroke-width="1.99111"/>
<path opacity="0.62875" d="M114.649 -93.1402C27.6709 -79.5857 45.9672 10.9815 65.9875 54.5707C133.614 162.978 193.251 76.8332 173.483 1.17454C153.716 -74.4841 283.557 -1.01444 306.73 -95.6073C333.6 -205.292 223.371 -110.083 114.649 -93.1402Z" stroke="#FAFAFA" stroke-opacity="0.3" stroke-width="1.99111"/>
<path opacity="0.5875" d="M116.556 -89.4217C29.1583 -78.911 44.2827 12.2395 62.7696 56.5009C126.571 167.203 189.178 83.1913 172.063 6.88882C154.949 -69.4136 282.147 8.5427 308.607 -85.1838C339.288 -193.863 225.804 -102.56 116.556 -89.4217Z" stroke="#FAFAFA" stroke-opacity="0.3" stroke-width="1.99111"/>
<path opacity="0.54625" d="M118.333 -85.639C30.6212 -78.1848 42.5553 13.438 59.4862 58.3177C119.385 171.179 184.886 89.4034 170.445 12.5501C156.004 -64.3032 280.403 18.0448 310.118 -74.7012C344.574 -182.244 227.972 -94.9568 118.333 -85.639Z" stroke="#FAFAFA" stroke-opacity="0.3" stroke-width="1.99111"/>
<path opacity="0.505" d="M119.976 -81.7966C32.0579 -77.408 40.7871 14.5755 56.1415 60.0187C112.065 174.901 180.38 95.4618 168.63 18.1514C156.879 -59.1591 278.329 27.4802 311.263 -64.1722C349.451 -170.447 229.874 -87.2823 119.976 -81.7966Z" stroke="#FAFAFA" stroke-opacity="0.3" stroke-width="1.99111"/>
<path opacity="0.46375" d="M121.484 -77.8991C33.4666 -76.5815 38.9803 15.6506 52.7394 61.602C104.62 178.366 175.666 101.359 166.62 23.6859C157.575 -53.9875 275.928 36.8376 312.04 -53.6097C353.913 -158.487 231.507 -79.5461 121.484 -77.8991Z" stroke="#FAFAFA" stroke-opacity="0.3" stroke-width="1.99111"/>
<path opacity="0.4225" d="M122.856 -73.9514C34.8457 -75.7064 37.1371 16.662 49.2841 63.0655C97.058 181.569 170.748 107.089 164.419 29.147C158.09 -48.7948 273.201 46.1054 312.447 -43.0265C357.956 -146.378 232.869 -71.7577 122.856 -73.9514Z" stroke="#FAFAFA" stroke-opacity="0.3" stroke-width="1.99111"/>
<path opacity="0.38125" d="M124.089 -69.9582C36.1933 -74.7836 35.2598 17.6084 45.7799 64.4076C89.3889 184.507 165.633 112.643 162.028 34.5279C158.424 -43.5873 270.152 55.2724 312.485 -32.4355C361.573 -134.136 233.958 -63.9265 124.089 -69.9582Z" stroke="#FAFAFA" stroke-opacity="0.3" stroke-width="1.99111"/>
<path opacity="0.34" d="M125.181 -65.9245C37.5079 -73.8144 33.3505 18.4888 42.231 65.6266C81.622 187.174 160.328 118.016 159.451 39.8221C158.575 -38.3713 266.785 64.3274 312.154 -21.8496C364.761 -121.775 234.773 -56.062 125.181 -65.9245Z" stroke="#FAFAFA" stroke-opacity="0.3" stroke-width="1.99111"/>
<path opacity="0.29875" d="M126.132 -61.855C38.7879 -72.7999 31.4117 19.3019 38.6417 66.721C73.7667 189.569 154.838 123.2 156.691 45.0231C158.544 -33.1533 263.104 73.2594 311.453 -11.2818C367.515 -109.311 235.313 -48.1739 126.132 -61.855Z" stroke="#FAFAFA" stroke-opacity="0.3" stroke-width="1.99111"/>
<path opacity="0.2575" d="M126.941 -57.7549C40.0317 -71.7414 29.4457 20.0469 35.0163 67.6894C65.8327 191.689 149.171 128.189 153.751 50.1247C158.331 -27.9394 259.114 82.0575 310.384 -0.744834C369.833 -96.7575 235.578 -40.2717 126.941 -57.7549Z" stroke="#FAFAFA" stroke-opacity="0.3" stroke-width="1.99111"/>
<path opacity="0.21625" d="M127.606 -53.629C41.2378 -70.6401 27.4548 20.7229 31.3594 68.5308C57.8295 193.53 143.333 132.977 150.635 55.1205C157.937 -22.7362 254.819 90.711 308.947 9.74837C371.711 -84.131 235.567 -32.3651 127.606 -53.629Z" stroke="#FAFAFA" stroke-opacity="0.3" stroke-width="1.99111"/>
<path opacity="0.175" d="M128.127 -49.4824C42.4047 -69.4974 25.4416 21.3289 27.6754 69.2439C49.7669 195.091 137.332 137.559 147.346 60.0045C157.361 -17.5499 250.225 99.2093 307.146 20.1851C373.148 -71.4467 235.279 -24.4637 128.127 -49.4824Z" stroke="#FAFAFA" stroke-opacity="0.3" stroke-width="1.99111"/>
<path opacity="0.13375" d="M128.502 -45.3202C43.531 -68.3146 23.4085 21.8644 23.9687 69.8281C41.6547 196.37 131.174 141.929 143.889 64.7708C156.604 -12.3869 245.337 107.542 304.981 30.5525C374.14 -58.72 234.717 -16.5771 128.502 -45.3202Z" stroke="#FAFAFA" stroke-opacity="0.3" stroke-width="1.99111"/>
<path opacity="0.0925" d="M128.733 -41.1474C44.6154 -67.0933 21.358 22.3285 20.2439 70.2826C33.5029 197.364 124.868 146.08 140.268 69.4135C155.668 -7.25344 240.161 115.699 302.456 40.8381C374.689 -45.9664 233.879 -8.71505 128.733 -41.1474Z" stroke="#FAFAFA" stroke-opacity="0.3" stroke-width="1.99111"/>
<path opacity="0.05125" d="M128.817 -36.9691C45.6565 -65.8348 19.2924 22.7208 16.5055 70.6068C25.3213 198.074 118.42 150.01 136.487 73.927C154.553 -2.15577 234.704 123.671 299.573 51.0293C374.791 -33.2015 232.767 -0.886962 128.817 -36.9691Z" stroke="#FAFAFA" stroke-opacity="0.3" stroke-width="1.99111"/>
<path opacity="0.01" d="M128.755 -32.7904C46.653 -64.5408 17.2145 23.0408 12.758 70.8003C17.12 198.497 111.84 153.712 132.55 78.3058C153.261 2.89987 228.971 131.447 296.336 61.1136C374.448 -20.4407 231.383 6.89755 128.755 -32.7904Z" stroke="#FAFAFA" stroke-opacity="0.3" stroke-width="1.99111"/>
</g>
<path d="M58.432 31.96V46.408H56.304V31.96H58.432ZM54.304 33.24V34.952H49.456V41.208C50.8213 41.1973 51.9253 41.1653 52.768 41.112C53.6213 41.0587 54.4533 40.952 55.264 40.792L55.44 42.536C54.5333 42.728 53.5947 42.8507 52.624 42.904C51.6533 42.9573 50.3093 42.984 48.592 42.984H47.344V33.24H54.304ZM66.9764 32.664C68.0004 32.664 68.923 32.8293 69.7444 33.16C70.5657 33.4907 71.2057 33.96 71.6644 34.568C72.1337 35.1653 72.3684 35.8587 72.3684 36.648C72.3684 37.352 72.1817 37.9813 71.8084 38.536C71.4457 39.0907 70.939 39.544 70.2884 39.896C69.6377 40.248 68.8857 40.4773 68.0324 40.584V42.968H73.5044V44.696H60.4644V42.968H65.9044V40.584C65.0617 40.4773 64.3097 40.248 63.6484 39.896C62.9977 39.544 62.491 39.0907 62.1284 38.536C61.7657 37.9813 61.5844 37.352 61.5844 36.648C61.5844 35.8587 61.8137 35.1653 62.2724 34.568C62.7417 33.96 63.387 33.4907 64.2084 33.16C65.0297 32.8293 65.9524 32.664 66.9764 32.664ZM66.9764 34.344C65.9844 34.344 65.1844 34.552 64.5764 34.968C63.979 35.3733 63.6804 35.9333 63.6804 36.648C63.6804 37.3627 63.979 37.928 64.5764 38.344C65.1844 38.7493 65.9844 38.952 66.9764 38.952C67.9577 38.952 68.747 38.7493 69.3444 38.344C69.9524 37.928 70.2564 37.3627 70.2564 36.648C70.2564 35.9333 69.9524 35.3733 69.3444 34.968C68.747 34.552 67.9577 34.344 66.9764 34.344ZM81.6328 33.24V34.92H77.2488V41.192C78.3048 41.1813 79.2221 41.1493 80.0008 41.096C80.7901 41.032 81.5741 40.9253 82.3528 40.776L82.5608 42.504C81.6541 42.6747 80.7368 42.792 79.8088 42.856C78.8914 42.9093 77.7181 42.936 76.2888 42.936H75.1208V33.24H81.6328ZM86.5448 31.96V46.408H84.4328V38.632H80.9608V36.92H84.4328V31.96H86.5448ZM101.473 38.408V39.944H88.4331V38.408H101.473ZM99.9211 40.632V44.072H92.0171V44.824H100.321V46.264H89.9051V42.744H97.8251V42.072H89.8891V40.632H99.9211ZM99.8891 32.2V35.64H92.1451V36.328H100.161V37.784H90.0491V34.296H97.7931V33.64H90.0331V32.2H99.8891ZM113.401 33.128V40.12H106.521V33.128H113.401ZM108.617 34.808V38.424H111.305V34.808H108.617ZM117.449 31.96V36.088H119.337V37.848H117.449V42.456H115.321V31.96H117.449ZM110.281 41.416V44.424H117.961V46.12H108.137V41.416H110.281ZM133.129 39.064V40.76H120.105V39.064H133.129ZM131.577 32.472V34.168H123.785V36.232H131.705V37.928H121.673V32.472H131.577ZM123.753 41.8V44.424H131.801V46.136H121.625V41.8H123.753ZM143.105 33.064V35.112C143.105 36.4987 143.377 37.7733 143.921 38.936C144.465 40.088 145.292 40.9307 146.401 41.464L145.121 43.16C144.396 42.7973 143.777 42.2907 143.265 41.64C142.753 40.9787 142.343 40.2107 142.033 39.336C141.724 40.2747 141.292 41.096 140.737 41.8C140.183 42.4933 139.511 43.032 138.721 43.416L137.457 41.688C138.62 41.144 139.495 40.2693 140.081 39.064C140.679 37.8587 140.977 36.5413 140.977 35.112V33.064H143.105ZM149.057 31.976V37.48H151.121V39.256H149.057V46.376H146.913V31.976H149.057ZM163.09 31.976V35.336H164.994V37.08H163.09V40.52H160.962V31.976H163.09ZM163.09 41.128V46.216H153.698V41.128H163.09ZM155.794 42.776V44.536H161.026V42.776H155.794ZM158.834 32.68V37.096H154.37V38.312C155.607 38.3013 156.647 38.2693 157.49 38.216C158.332 38.152 159.175 38.0453 160.018 37.896L160.21 39.576C159.271 39.7573 158.311 39.88 157.33 39.944C156.348 39.9973 155.063 40.024 153.474 40.024H152.258V35.512H156.722V34.376H152.226V32.68H158.834ZM178.77 37.512V39.192H165.746V37.512H178.77ZM177.106 32.216V33.912H169.458V35.112H177.234V36.776H167.346V32.216H177.106ZM177.17 39.96V43.816H169.314V44.632H177.554V46.248H167.234V42.312H175.074V41.56H167.202V39.96H177.17ZM196.097 35.016H192.849V45.208H190.769V35.016H187.489V33.24H196.097V35.016ZM199.874 45.24C199.138 45.24 198.482 45.0747 197.906 44.744C197.34 44.4133 196.898 43.9547 196.578 43.368C196.258 42.7813 196.098 42.1093 196.098 41.352C196.098 40.5947 196.258 39.9173 196.578 39.32C196.898 38.7227 197.34 38.2587 197.906 37.928C198.482 37.5973 199.138 37.432 199.874 37.432C200.599 37.432 201.202 37.5813 201.682 37.88C202.162 38.1787 202.508 38.488 202.722 38.808C202.946 39.128 203.084 39.368 203.138 39.528C203.372 40.0187 203.49 40.664 203.49 41.464L203.474 42.088H198.066C198.162 42.5147 198.38 42.8613 198.722 43.128C199.074 43.3947 199.458 43.528 199.874 43.528C200.343 43.528 200.711 43.4427 200.978 43.272C201.255 43.0907 201.447 42.904 201.554 42.712L203.234 43.384C203.02 43.896 202.626 44.3333 202.05 44.696C201.474 45.0587 200.748 45.24 199.874 45.24ZM201.57 40.696C201.474 40.216 201.282 39.8373 200.994 39.56C200.716 39.2827 200.343 39.144 199.874 39.144C199.415 39.144 199.02 39.288 198.69 39.576C198.37 39.8533 198.162 40.2267 198.066 40.696H201.57ZM208.682 45.272C207.968 45.272 207.338 45.1067 206.794 44.776C206.25 44.4347 205.824 43.9707 205.514 43.384C205.216 42.7867 205.066 42.1093 205.066 41.352C205.066 40.5947 205.216 39.9227 205.514 39.336C205.824 38.7387 206.25 38.2747 206.794 37.944C207.338 37.6133 207.968 37.448 208.682 37.448C209.066 37.448 209.45 37.5333 209.834 37.704C210.218 37.8747 210.544 38.1307 210.81 38.472V37.432H212.874V45.224H210.81V44.248C210.544 44.6 210.218 44.856 209.834 45.016C209.45 45.1867 209.066 45.272 208.682 45.272ZM208.922 43.56C209.445 43.56 209.888 43.352 210.25 42.936C210.624 42.5093 210.816 41.9813 210.826 41.352C210.816 40.7227 210.624 40.2 210.25 39.784C209.888 39.3573 209.445 39.144 208.922 39.144C208.368 39.144 207.93 39.3413 207.61 39.736C207.29 40.1307 207.13 40.6693 207.13 41.352C207.13 42.0347 207.29 42.5733 207.61 42.968C207.93 43.3627 208.368 43.56 208.922 43.56ZM224.867 41.016C224.867 40.472 224.744 40.0347 224.499 39.704C224.253 39.3733 223.928 39.208 223.523 39.208C223.096 39.208 222.744 39.3787 222.467 39.72C222.2 40.0613 222.067 40.4827 222.067 40.984V45.224H220.003V41.016C220.003 40.472 219.88 40.0347 219.635 39.704C219.389 39.3733 219.069 39.208 218.675 39.208C218.248 39.208 217.896 39.384 217.619 39.736C217.341 40.0773 217.203 40.52 217.203 41.064V45.224H215.139V37.432H217.203V38.536C217.427 38.1947 217.699 37.9333 218.019 37.752C218.339 37.56 218.68 37.464 219.043 37.464C219.48 37.464 219.901 37.6027 220.307 37.88C220.712 38.1573 221.037 38.504 221.283 38.92C221.571 38.5147 221.949 38.1733 222.419 37.896C222.899 37.608 223.357 37.464 223.795 37.464C224.424 37.464 224.979 37.6133 225.459 37.912C225.939 38.2107 226.307 38.6267 226.563 39.16C226.819 39.6933 226.947 40.3013 226.947 40.984V45.224H224.867V41.016ZM236.566 43.4C237.356 43.4 238.049 43.2293 238.646 42.888C239.244 42.536 239.702 42.0453 240.022 41.416C240.353 40.7867 240.518 40.056 240.518 39.224C240.518 38.3813 240.353 37.6453 240.022 37.016C239.702 36.3867 239.244 35.9013 238.646 35.56C238.049 35.208 237.356 35.032 236.566 35.032L235.014 35.048V43.384L236.566 43.4ZM236.598 33.24C237.75 33.24 238.78 33.496 239.686 34.008C240.593 34.5093 241.297 35.2133 241.798 36.12C242.31 37.0267 242.566 38.0613 242.566 39.224C242.566 40.3867 242.31 41.4213 241.798 42.328C241.297 43.2347 240.593 43.944 239.686 44.456C238.78 44.9573 237.75 45.208 236.598 45.208H232.95V33.24H236.598ZM251.753 38.072V40.136H244.617V38.072H251.753ZM257.358 43.528C257.892 43.528 258.313 43.336 258.622 42.952C258.932 42.5573 259.086 42.0187 259.086 41.336C259.086 40.664 258.932 40.1307 258.622 39.736C258.313 39.3413 257.892 39.144 257.358 39.144C256.825 39.144 256.404 39.3413 256.094 39.736C255.785 40.12 255.63 40.6533 255.63 41.336C255.63 42.0187 255.785 42.5573 256.094 42.952C256.404 43.336 256.825 43.528 257.358 43.528ZM257.358 37.416C258.094 37.416 258.75 37.5813 259.326 37.912C259.902 38.2427 260.35 38.7067 260.67 39.304C260.99 39.9013 261.15 40.5787 261.15 41.336C261.15 42.0933 260.99 42.7707 260.67 43.368C260.35 43.9547 259.902 44.4187 259.326 44.76C258.75 45.0907 258.094 45.256 257.358 45.256C256.622 45.256 255.966 45.0907 255.39 44.76C254.814 44.4187 254.366 43.9547 254.046 43.368C253.726 42.7707 253.566 42.0933 253.566 41.336C253.566 40.5787 253.726 39.9013 254.046 39.304C254.366 38.7067 254.814 38.2427 255.39 37.912C255.966 37.5813 256.622 37.416 257.358 37.416ZM262.712 37.432H264.76V38.552C265.016 38.1893 265.347 37.9067 265.752 37.704C266.168 37.5013 266.568 37.4107 266.952 37.432V39.288C266.515 39.2667 266.131 39.3627 265.8 39.576C265.47 39.7787 265.214 40.0507 265.032 40.392C264.851 40.7333 264.76 41.08 264.76 41.432V45.224H262.712V37.432ZM271.62 45.256C270.906 45.256 270.271 45.0907 269.716 44.76C269.172 44.4293 268.746 43.9653 268.436 43.368C268.138 42.7707 267.988 42.0933 267.988 41.336C267.988 40.5787 268.138 39.9067 268.436 39.32C268.746 38.7227 269.172 38.2587 269.716 37.928C270.271 37.5867 270.906 37.416 271.62 37.416C271.93 37.416 272.287 37.496 272.692 37.656C273.108 37.816 273.471 38.0987 273.78 38.504V33.656H275.844V45.224H273.78V44.184C273.471 44.568 273.108 44.84 272.692 45C272.276 45.1707 271.919 45.256 271.62 45.256ZM271.844 43.592C272.196 43.592 272.522 43.496 272.82 43.304C273.119 43.112 273.354 42.8453 273.524 42.504C273.695 42.1627 273.78 41.7893 273.78 41.384C273.78 40.968 273.695 40.5947 273.524 40.264C273.354 39.9227 273.119 39.656 272.82 39.464C272.522 39.2613 272.196 39.16 271.844 39.16C271.29 39.16 270.852 39.3627 270.532 39.768C270.212 40.1627 270.052 40.7013 270.052 41.384C270.052 42.0667 270.212 42.6053 270.532 43C270.852 43.3947 271.29 43.592 271.844 43.592ZM281.28 45.24C280.544 45.24 279.888 45.0747 279.312 44.744C278.747 44.4133 278.304 43.9547 277.984 43.368C277.664 42.7813 277.504 42.1093 277.504 41.352C277.504 40.5947 277.664 39.9173 277.984 39.32C278.304 38.7227 278.747 38.2587 279.312 37.928C279.888 37.5973 280.544 37.432 281.28 37.432C282.005 37.432 282.608 37.5813 283.088 37.88C283.568 38.1787 283.915 38.488 284.128 38.808C284.352 39.128 284.491 39.368 284.544 39.528C284.779 40.0187 284.896 40.664 284.896 41.464L284.88 42.088H279.472C279.568 42.5147 279.787 42.8613 280.128 43.128C280.48 43.3947 280.864 43.528 281.28 43.528C281.749 43.528 282.117 43.4427 282.384 43.272C282.661 43.0907 282.853 42.904 282.96 42.712L284.64 43.384C284.427 43.896 284.032 44.3333 283.456 44.696C282.88 45.0587 282.155 45.24 281.28 45.24ZM282.976 40.696C282.88 40.216 282.688 39.8373 282.4 39.56C282.123 39.2827 281.749 39.144 281.28 39.144C280.821 39.144 280.427 39.288 280.096 39.576C279.776 39.8533 279.568 40.2267 279.472 40.696H282.976ZM286.587 37.432H288.635V38.552C288.891 38.1893 289.222 37.9067 289.627 37.704C290.043 37.5013 290.443 37.4107 290.827 37.432V39.288C290.39 39.2667 290.006 39.3627 289.675 39.576C289.345 39.7787 289.089 40.0507 288.907 40.392C288.726 40.7333 288.635 41.08 288.635 41.432V45.224H286.587V37.432Z" fill="white"/>
</g>
<defs>
<clipPath id="clip0_3301_38890">
<rect width="338" height="77" rx="10" fill="white"/>
</clipPath>
</defs>
</svg>
