<svg width="20" height="21" viewBox="0 0 20 21" fill="none" xmlns="http://www.w3.org/2000/svg">
<path d="M11.7431 16.191C12.4567 16.191 12.8337 17.0358 12.3577 17.5671C12.0482 17.9128 11.6693 18.1894 11.2457 18.3788C10.822 18.5681 10.3632 18.666 9.89922 18.666C9.43521 18.666 8.97641 18.5681 8.55278 18.3788C8.12916 18.1894 7.75023 17.9128 7.44072 17.5671C6.98532 17.0589 7.31037 16.2644 7.96377 16.1968L8.05452 16.1918L11.7431 16.191ZM9.89922 2.16602C11.0196 2.16602 11.9667 2.91099 12.2711 3.93234L12.309 4.07342L12.3156 4.10889C13.2253 4.6218 14.0003 5.34298 14.5774 6.2133C15.1545 7.08362 15.5171 8.0783 15.6354 9.11582L15.6586 9.35259L15.6742 9.59102V12.0091L15.6915 12.1213C15.8045 12.7292 16.1409 13.2728 16.6345 13.6451L16.7723 13.7416L16.9059 13.8233C17.6154 14.225 17.3679 15.2802 16.5949 15.3611L16.4992 15.366H3.29922C2.45112 15.366 2.15495 14.2407 2.8925 13.8233C3.20685 13.6454 3.47845 13.4008 3.68824 13.1068C3.89804 12.8128 4.04093 12.4764 4.1069 12.1213L4.12422 12.0033L4.12505 9.55307C4.17535 8.47552 4.48901 7.42672 5.03856 6.49848C5.58811 5.57023 6.35681 4.79084 7.27737 4.22852L7.48197 4.10807L7.49022 4.07259C7.6066 3.5791 7.87173 3.13326 8.24976 2.79536C8.62779 2.45747 9.10047 2.24383 9.60387 2.18334L9.75402 2.16932L9.89922 2.16602Z" fill="#FF6E3F"/>
</svg>
