<svg width="33" height="33" viewBox="0 0 33 33" fill="none" xmlns="http://www.w3.org/2000/svg">
<path fill-rule="evenodd" clip-rule="evenodd" d="M16.5004 1.6499C8.29897 1.6499 1.65039 8.29848 1.65039 16.4999C1.65039 24.7014 8.29897 31.3499 16.5004 31.3499C24.7019 31.3499 31.3504 24.7014 31.3504 16.4999C31.3504 8.29848 24.7019 1.6499 16.5004 1.6499ZM20.0738 12.6854C20.4982 12.1354 21.2879 12.0335 21.838 12.4578C22.3879 12.8821 22.4899 13.672 22.0657 14.222L17.0281 20.7523C16.8563 20.975 16.656 21.2349 16.4545 21.4316C16.2143 21.6659 15.8176 21.968 15.2409 21.9965C14.6641 22.0251 14.2395 21.7636 13.9774 21.5542C13.7574 21.3785 13.5324 21.1395 13.3396 20.9348L11.0161 18.4705C10.5395 17.9649 10.5629 17.169 11.0684 16.6925C11.5738 16.2158 12.3698 16.2393 12.8464 16.7448L15.0992 19.134L20.0738 12.6854Z" fill="#FF6E3F"/>
</svg>
