<svg width="20" height="20" viewBox="0 0 20 20" fill="none" xmlns="http://www.w3.org/2000/svg">
<path fill-rule="evenodd" clip-rule="evenodd" d="M3.8976 1.2753C4.44866 1.32224 4.85733 1.80701 4.81039 2.35807L4.78428 2.66458C6.1473 1.69364 7.79716 1.09056 9.59376 1.00935C14.5593 0.784908 18.7666 4.62829 18.991 9.59378C19.0906 11.7972 18.388 13.8537 17.1424 15.4766C16.8057 15.9154 16.1771 15.9981 15.7383 15.6613C15.2996 15.3246 15.2169 14.696 15.5536 14.2572C16.5226 12.9947 17.0678 11.3988 16.9903 9.68422C16.8158 5.82371 13.5448 2.8356 9.68419 3.0101C8.3427 3.07074 7.1067 3.50484 6.07177 4.20834L6.34415 4.20309C6.8971 4.19244 7.35399 4.63206 7.36465 5.18501C7.3753 5.73797 6.93568 6.19486 6.38273 6.20551L3.57762 6.25956C3.29395 6.26502 3.02128 6.1499 2.82735 5.9428C2.63343 5.7357 2.53646 5.45605 2.56054 5.17336L2.81483 2.18809C2.86177 1.63703 3.34654 1.22836 3.8976 1.2753ZM2.18091 8.03054C2.72992 8.09732 3.12084 8.59652 3.05406 9.14553C3.00765 9.52702 2.99209 9.91807 3.01008 10.3161C3.18458 14.1766 6.45559 17.1647 10.3162 16.9902C11.3084 16.9454 12.2406 16.6967 13.0762 16.2873C13.5728 16.0439 14.1727 16.2493 14.416 16.7459C14.6594 17.2426 14.454 17.8425 13.9574 18.0858C12.8795 18.6139 11.6787 18.9335 10.4066 18.991C5.44105 19.2154 1.23377 15.3721 1.00933 10.4066C0.986304 9.89713 1.00616 9.39495 1.06592 8.90368C1.1327 8.35468 1.6319 7.96375 2.18091 8.03054Z" fill="#FAFAFA"/>
</svg>
