<svg width="16" height="16" viewBox="0 0 16 16" fill="none" xmlns="http://www.w3.org/2000/svg">
<path fill-rule="evenodd" clip-rule="evenodd" d="M8.00078 0.799805C4.02433 0.799805 0.800781 4.02336 0.800781 7.9998C0.800781 11.9763 4.02433 15.1998 8.00078 15.1998C11.9773 15.1998 15.2008 11.9763 15.2008 7.9998C15.2008 4.02336 11.9773 0.799805 8.00078 0.799805ZM9.03838 6.10639C9.2747 5.87007 9.65782 5.87007 9.89414 6.10639C10.1305 6.34272 10.1305 6.72587 9.89414 6.96219L8.85654 7.9998L9.89414 9.03741C10.1305 9.27372 10.1305 9.65693 9.89414 9.89324C9.65782 10.1296 9.2747 10.1296 9.03838 9.89324L8.00074 8.85565L6.96312 9.89324C6.7268 10.1296 6.34364 10.1296 6.10732 9.89324C5.871 9.65693 5.871 9.27372 6.10732 9.03741L7.14495 7.9998L6.10732 6.96219C5.871 6.72587 5.871 6.34272 6.10732 6.10639C6.34364 5.87007 6.7268 5.87007 6.96312 6.10639L8.00074 7.14402L9.03838 6.10639Z" fill="#C0C0C0"/>
</svg>
